<svg xmlns="http://www.w3.org/2000/svg" viewBox="0 0 227 250"><polyline points="196.84 125 227 125 227 83.37 196.84 83.37 196.75 83.37 196.75 125 196.75 166.64" fill="#5e5e5e"/><path d="M30.16,125H71.78v41.64h.1V125H113.5v41.64h41.62V125H113.5V41.63h41.62V17.94L131.47,4.28C126.53,1.43,120,0,113.5,0V83.37H71.78V125H0v41.64H30.16Z" fill="#efefef"/><path d="M71.88,208.37h-.1V232l23.73,13.71c4.95,2.86,11.47,4.29,18,4.28V208.37Z" fill="#5e5e5e"/><rect x="30.16" y="83.37" width="41.62" height="41.63" fill="#cecece"/><path d="M18,49.07C8.09,54.78,0,68.8,0,80.21v3.16H30.16V42Z" fill="#cecece"/><rect y="83.37" width="30.16" height="41.63" fill="#5e5e5e"/><rect x="71.88" y="41.63" width="41.62" height="41.73" fill="#757575"/><polygon points="71.78 41.63 71.78 17.99 30.85 41.63 71.78 41.63" fill="#757575"/><polygon points="71.78 41.63 30.85 41.63 30.16 42.03 30.16 83.37 30.16 83.37 71.78 83.37 71.88 83.37 71.88 41.63 71.78 41.63" fill="#4f4f4f"/><polygon points="113.5 0 113.5 0 113.5 0 113.5 0" fill="#5e5e5e"/><path d="M113.5,41.63V0h0c-6.52,0-13,1.43-18,4.28L71.88,17.94V41.63Z" fill="#5e5e5e"/><rect x="155.12" y="83.37" width="41.62" height="41.63" fill="#cecece"/><rect x="113.5" y="41.63" width="41.62" height="41.73" fill="#cecece"/><polygon points="155.12 83.37 113.5 83.37 113.5 125 155.12 125 155.12 125 155.12 83.37" fill="#1a82e2"/><path d="M209,49.07l-12.17-7V83.37H227V80.21C227,68.8,218.9,54.78,209,49.07Z" fill="#757575"/><polygon points="196.14 41.63 155.12 17.94 155.12 41.63 196.14 41.63" fill="#757575"/><polygon points="155.12 41.63 155.12 83.37 196.75 83.37 196.84 83.37 196.84 42.04 196.14 41.63 155.12 41.63" fill="#4f4f4f"/><polygon points="30.85 208.37 71.78 232.01 71.78 208.37 30.85 208.37" fill="#cecece"/><path d="M18,200.93l12.19,7V166.64H0v3.14C0,181.21,8.09,195.22,18,200.93Z" fill="#cecece"/><rect x="71.88" y="166.64" width="41.62" height="41.73" fill="#757575"/><rect x="30.16" y="125" width="41.62" height="41.63" fill="#757575"/><polygon points="71.78 166.64 30.16 166.64 30.16 207.97 30.85 208.37 71.78 208.37 71.88 208.37 71.88 166.64 71.78 166.64" fill="#4f4f4f"/><rect x="71.88" y="125" width="41.62" height="41.63" fill="#009dd9"/><polygon points="155.12 232.06 196.14 208.37 155.12 208.37 155.12 232.06" fill="#cecece"/><rect x="113.5" y="166.64" width="41.62" height="41.73" fill="#cecece"/><path d="M155.12,232.06V208.37H113.5V250c6.52,0,13-1.42,18-4.28Z" fill="#727272"/><path d="M209,200.93c9.9-5.71,18-19.73,18-31.15v-3.14H196.84V208Z" fill="#757575"/><polygon points="155.12 125 155.12 166.64 196.75 166.64 196.75 125 155.12 125 155.12 125" fill="#757575"/><polygon points="155.12 208.37 155.12 208.37 196.14 208.37 196.84 207.97 196.84 166.64 196.75 166.64 155.12 166.64 155.12 208.37" fill="#4f4f4f"/><rect x="196.84" y="125" width="30.16" height="41.63" fill="#5e5e5e"/></svg>