<svg width="150" height="150" viewBox="0 0 150 150" fill="none" xmlns="http://www.w3.org/2000/svg">
<rect width="150" height="150" fill="#E5E5E5"/>
<path d="M135 0H15C6.71573 0 0 6.71573 0 15V135C0 143.284 6.71573 150 15 150H135C143.284 150 150 143.284 150 135V15C150 6.71573 143.284 0 135 0Z" fill="#272727"/>
<path d="M28.3 104.6C43.9 94.7 55.7 87.2 71.3 77.4C73.6 76 76.5 76 78.8 77.4L123.1 105.5" stroke="white" stroke-width="8" stroke-miterlimit="10" stroke-linejoin="round"/>
<path opacity="0.3" d="M31.9 50.5L106.2 115.3L124.4 103.8V47.2L75 73.9L31.9 50.5Z" fill="black"/>
<path d="M24.5 49.9V100.1C24.5 102.6 25.8 104.9 28 106.2L71.5 131.3C73.7 132.6 76.3 132.6 78.5 131.3L122 106.2C124.2 104.9 125.5 102.6 125.5 100.1V49.9C125.5 47.4 124.2 45.1 122 43.8L78.5 18.7C76.3 17.4 73.7 17.4 71.5 18.7L28 43.8C25.9 45.1 24.5 47.4 24.5 49.9Z" stroke="white" stroke-width="8" stroke-miterlimit="10"/>
<path d="M24.5 46L71.5 73C73.7 74.2 76.3 74.2 78.5 73L125.5 46" stroke="white" stroke-width="8" stroke-miterlimit="10"/>
</svg>
